# xmcd
#
# Track frame offsets: 
#        150
#        9836
#        17693
#        33490
#        43657
#        54142
#        64800
#        77067
#        85016
#        92955
#        103590
#        114132
#        124745
#        133379
#        144113
#        153172
#        161877
#        171131
#        192913
#
# Disc length: 2729 seconds
#
# Revision: 2
# Processed by: cddbd v1.5.2PL0 Copyright (c) Steve Scherf et al.
# Submitted via: ExactAudioCopyFreeDBPlugin 1.0
#
DISCID=ea0aa713
DTITLE=James Brown - 5 Classic Albums plus Bonus Rare and Live Tracks
DYEAR=2011
DGENRE=Soul
TTITLE0=Hold It
TTITLE1=The Scratch
TTITLE2=Night Train
TTITLE3=Night Flying
TTITLE4=Suds
TTITLE5=Cross Firing
TTITLE6=Sticky
TTITLE7=Mashed Potatoes, Part 1
TTITLE8=Mashed Potatoes, Part 2
TTITLE9=Dish Rag, Part 1
TTITLE10=Dish Rag, Part 2
TTITLE11=Hot Chilli
TTITLE12=Wobble Wobble, Part 1
TTITLE13=Wobble Wobble, Part 2
TTITLE14=Loo Key Doo Key, Part 1
TTITLE15=Loo Key Doo Key, Part 2
TTITLE16=Slow Down
TTITLE17=Medley:  Papa's Got a Brand New Bag - I Got You (I Feel Good)
TTITLE17=Prisoner of Love
TTITLE18=It's a Man's Man's Man's World
EXTD=
EXTT0=
EXTT1=
EXTT2=
EXTT3=
EXTT4=
EXTT5=
EXTT6=
EXTT7=
EXTT8=
EXTT9=
EXTT10=
EXTT11=
EXTT12=
EXTT13=
EXTT14=
EXTT15=
EXTT16=
EXTT17=
EXTT18=
PLAYORDER=
